<?xml version="1.0" standalone="no"?>
<!DOCTYPE svg PUBLIC "-//W3C//DTD SVG 20010904//EN"
 "http://www.w3.org/TR/2001/REC-SVG-20010904/DTD/svg10.dtd">
<svg version="1.0" xmlns="http://www.w3.org/2000/svg"
 width="640.000000pt" height="640.000000pt" viewBox="0 0 640.000000 640.000000"
 preserveAspectRatio="xMidYMid meet">

<g transform="translate(0.000000,640.000000) scale(0.100000,-0.100000)"
fill="#000000" stroke="none">
<path d="M3185 5877 c-27 -11 -77 -32 -110 -48 -33 -15 -74 -31 -92 -34 -18
-4 -42 -14 -55 -24 -13 -10 -34 -22 -48 -26 -24 -7 -82 -53 -141 -110 -15 -14
-31 -25 -36 -25 -5 0 -17 -13 -26 -30 -10 -16 -26 -30 -35 -30 -10 0 -23 -9
-30 -20 -7 -11 -18 -20 -26 -20 -21 0 -141 -122 -188 -191 -24 -35 -64 -85
-90 -111 l-48 -47 -97 -4 c-54 -3 -134 -10 -178 -17 -44 -6 -147 -13 -230 -15
-209 -5 -275 -15 -318 -48 -20 -15 -42 -27 -49 -27 -7 0 -33 -14 -57 -30 -25
-17 -55 -33 -68 -36 -12 -3 -25 -15 -28 -25 -4 -11 -26 -29 -50 -40 -24 -11
-51 -29 -61 -40 -9 -10 -25 -19 -34 -19 -9 0 -29 -13 -45 -30 -16 -16 -33 -30
-38 -30 -5 0 -32 -16 -61 -35 -29 -19 -58 -35 -64 -35 -6 0 -12 -4 -14 -8 -1
-4 -25 -20 -51 -35 -26 -16 -53 -37 -60 -48 -6 -10 -15 -19 -20 -19 -4 0 -73
-66 -153 -147 -194 -197 -194 -197 -194 -215 0 -9 -11 -19 -24 -22 -14 -3 -28
-16 -32 -28 -3 -12 -31 -50 -60 -85 -46 -53 -87 -109 -116 -157 -3 -6 -16 -32
-27 -58 -11 -25 -25 -49 -31 -53 -5 -3 -10 -16 -10 -29 0 -12 -6 -28 -12 -34
-9 -9 -14 -67 -16 -196 -3 -149 -1 -190 12 -221 9 -20 16 -46 16 -56 0 -11 7
-19 15 -19 8 0 15 -6 15 -13 0 -7 21 -36 46 -64 32 -38 57 -56 86 -63 22 -6
51 -22 65 -36 13 -13 25 -24 27 -24 2 0 21 -8 42 -17 22 -9 44 -17 49 -18 6
-1 17 -5 26 -9 18 -8 208 -3 274 7 123 20 198 27 365 38 193 13 239 13 433 3
134 -6 123 7 107 -124 -9 -81 4 -371 19 -405 13 -31 51 -159 51 -172 0 -6 10
-24 23 -40 12 -15 28 -39 35 -53 7 -14 35 -54 62 -90 28 -36 53 -73 56 -82 4
-10 14 -20 23 -23 10 -3 33 -19 51 -35 l33 -29 -44 -52 c-24 -28 -53 -70 -64
-93 -12 -22 -29 -54 -38 -71 -30 -57 -66 -190 -82 -305 -9 -63 -22 -133 -28
-155 -7 -22 -10 -47 -9 -56 2 -10 -2 -20 -8 -24 -6 -4 -10 -112 -10 -320 l0
-313 79 -7 c44 -4 124 -4 178 0 84 6 104 11 140 35 22 16 52 31 65 35 12 4 25
10 28 14 8 10 92 48 131 61 20 6 44 19 54 30 10 11 21 17 25 15 4 -2 15 4 25
15 10 11 24 20 32 20 7 0 13 5 13 11 0 5 17 17 38 26 20 8 49 24 64 34 14 11
32 19 40 19 7 1 24 14 38 30 13 17 29 30 35 30 6 0 22 12 37 27 14 16 40 41
57 57 17 16 31 35 31 43 0 7 4 13 8 13 4 0 14 16 21 35 7 19 21 40 32 45 10 6
40 34 66 63 75 82 167 167 181 167 16 0 42 24 42 39 0 13 34 18 215 32 237 17
269 21 281 30 15 12 128 24 122 13 -40 -77 -78 -169 -78 -191 0 -16 12 -48 27
-71 23 -35 34 -42 70 -48 48 -7 193 4 193 15 0 3 27 26 60 50 33 24 60 48 60
52 0 5 9 9 20 9 13 0 25 12 34 35 8 19 22 35 30 35 33 0 183 164 207 227 8 20
15 23 67 23 34 0 93 11 143 26 46 14 98 26 115 28 18 1 38 7 45 13 8 6 39 21
69 33 30 13 69 33 85 45 17 13 50 26 74 30 24 4 66 17 95 30 28 12 65 25 82
29 17 4 46 18 65 32 18 13 39 24 46 24 12 0 37 11 73 32 8 5 27 14 43 21 15 6
27 15 27 19 0 4 8 8 18 8 10 0 33 11 51 24 19 14 48 28 65 32 17 3 52 22 77
40 26 19 54 34 62 34 8 0 41 25 74 56 32 30 74 63 93 72 19 9 43 27 53 39 10
13 23 23 29 23 23 0 157 134 293 293 9 10 19 32 22 50 4 17 17 40 29 50 12 9
25 32 29 50 4 17 13 51 21 75 11 33 14 113 14 355 0 172 -5 330 -10 352 -6 22
-15 61 -20 88 -5 26 -21 64 -35 85 -14 20 -25 43 -25 52 0 8 -13 35 -30 60
-16 24 -32 58 -36 75 -3 16 -24 56 -45 89 -22 32 -39 62 -39 67 0 5 -7 9 -15
9 -8 0 -15 9 -15 19 0 11 -9 30 -20 43 -53 63 -71 89 -83 116 -11 27 -110 147
-145 176 -7 6 -49 45 -93 87 l-81 76 12 84 c15 109 15 135 1 189 -6 25 -17 68
-23 95 -6 28 -16 56 -22 64 -6 8 -20 31 -31 52 -11 21 -39 58 -63 83 -37 40
-48 46 -82 46 -37 0 -47 -7 -113 -73 -39 -40 -86 -90 -104 -111 l-31 -40 -45
43 c-25 24 -65 52 -89 63 -24 11 -52 27 -63 37 -27 24 -135 42 -283 47 -68 2
-127 6 -131 9 -5 2 -11 20 -14 38 -3 19 -16 46 -29 60 -12 14 -28 31 -35 39
-6 7 -36 31 -67 53 -30 22 -58 47 -61 55 -18 45 -198 137 -288 147 -29 3 -65
13 -82 21 -32 17 -144 36 -291 51 -49 6 -101 14 -115 19 -13 6 -51 18 -84 28
-33 10 -67 25 -75 33 -9 9 -34 30 -56 47 -37 29 -46 32 -110 31 -42 0 -88 -8
-119 -20z m154 -85 c80 -75 233 -135 341 -132 14 0 34 -4 45 -9 37 -17 119
-33 219 -42 54 -4 103 -12 110 -17 11 -9 90 -36 137 -46 14 -3 45 -21 70 -41
24 -19 50 -35 57 -35 6 0 12 -4 12 -10 0 -14 42 -60 54 -60 6 0 17 -9 24 -20
7 -11 17 -20 23 -20 17 0 45 -33 68 -80 12 -25 26 -52 31 -60 5 -8 11 -23 14
-32 5 -16 22 -18 163 -18 131 0 167 -3 210 -19 29 -11 59 -26 68 -34 8 -9 27
-18 42 -21 26 -6 98 -66 135 -113 15 -20 15 -22 -18 -54 -27 -26 -36 -30 -48
-20 -19 16 -87 51 -99 51 -4 0 -27 9 -49 20 -23 11 -52 20 -64 20 -13 0 -33 4
-46 9 -13 5 -52 17 -88 26 -36 10 -81 24 -100 33 -21 9 -88 18 -175 23 -77 5
-180 14 -230 20 -49 5 -98 10 -107 10 -10 0 -20 4 -23 10 -4 5 -42 9 -86 9
-46 0 -79 4 -79 10 0 6 -23 10 -51 10 -65 0 -228 19 -254 30 -22 9 -261 21
-268 13 -3 -2 -53 -5 -111 -5 -58 1 -108 -3 -111 -8 -3 -4 -121 -11 -262 -14
-142 -3 -310 -8 -373 -11 -85 -4 -110 -3 -97 5 9 6 15 15 12 19 -2 5 4 16 15
26 11 10 20 24 20 31 0 7 11 21 25 32 14 11 25 24 25 29 0 15 117 123 133 123
7 0 24 11 37 25 13 14 29 25 35 25 6 0 18 11 25 25 7 14 49 52 92 86 43 33 78
64 78 70 0 5 8 9 19 9 10 0 45 13 77 30 32 16 73 32 89 36 17 4 49 18 73 32
40 23 81 36 125 39 10 1 26 -6 36 -15z m2175 -647 c21 -19 34 -35 28 -35 -5 0
-17 -17 -27 -37 -9 -21 -31 -52 -49 -69 -37 -38 -92 -112 -102 -139 -8 -20
-48 -65 -59 -65 -15 0 -126 -120 -120 -130 13 -22 65 -1 104 40 20 22 40 40
44 40 15 0 117 123 117 141 0 4 14 23 30 41 17 18 30 38 30 46 0 7 4 11 9 8 5
-4 19 6 30 21 13 18 21 22 21 13 0 -8 6 -27 14 -42 26 -50 29 -85 8 -100 -11
-7 -22 -24 -27 -37 -9 -30 -60 -77 -111 -102 -23 -11 -76 -52 -118 -90 -65
-61 -74 -73 -66 -90 6 -10 17 -19 24 -19 7 0 44 29 81 65 37 36 73 65 81 65 8
0 14 5 14 10 0 6 7 10 15 10 8 0 19 9 25 20 6 11 18 20 27 20 10 0 27 12 38
26 20 25 21 25 22 5 1 -12 -4 -21 -12 -21 -14 0 -25 -21 -25 -50 0 -32 -237
-248 -282 -257 -15 -3 -45 -21 -67 -39 -21 -19 -44 -34 -49 -34 -5 0 -15 -7
-22 -15 -7 -8 -20 -15 -30 -15 -10 0 -23 -6 -29 -14 -7 -8 -35 -17 -64 -21
-29 -4 -72 -18 -96 -31 -24 -13 -50 -24 -59 -24 -8 0 -23 -7 -33 -16 -10 -9
-48 -20 -86 -24 -37 -5 -69 -13 -71 -19 -2 -6 -10 -11 -18 -11 -8 0 -18 -8
-21 -17 -4 -10 -14 -23 -22 -30 -27 -21 47 -16 83 6 17 10 55 21 85 24 32 4
85 22 130 44 42 20 86 36 98 34 11 -1 24 3 28 8 3 6 13 11 22 11 15 0 80 27
126 51 12 7 23 7 30 1 7 -6 40 -16 74 -22 44 -9 69 -20 86 -39 13 -14 43 -42
66 -61 23 -19 54 -45 69 -57 15 -13 33 -23 40 -23 6 0 12 -4 12 -9 0 -6 12
-16 28 -23 21 -10 28 -21 30 -51 2 -20 7 -37 13 -37 5 0 9 -6 9 -13 0 -8 9
-22 20 -32 11 -10 20 -24 20 -31 0 -16 40 -97 52 -105 5 -3 8 -10 6 -15 -2 -5
7 -25 19 -44 17 -28 22 -54 25 -129 2 -70 0 -95 -10 -98 -7 -3 -11 1 -10 8 3
12 -62 42 -71 34 -9 -9 13 -25 35 -25 14 0 23 -4 19 -9 -3 -5 4 -13 16 -16 21
-7 21 -11 14 -97 -7 -95 -28 -193 -47 -215 -6 -7 -17 -13 -24 -13 -8 0 -17
-12 -20 -27 -4 -14 -20 -46 -36 -69 -15 -23 -28 -49 -28 -57 0 -12 -29 -55
-70 -104 -15 -18 -12 -43 7 -50 10 -4 23 2 34 15 9 12 22 22 27 22 6 0 13 13
17 30 4 17 10 30 14 30 4 0 29 43 55 95 27 52 56 97 66 100 21 7 38 71 53 214
11 94 14 105 35 112 14 5 21 5 17 -1 -3 -5 5 -14 17 -21 13 -7 30 -21 40 -31
10 -12 19 -15 23 -8 8 13 25 13 25 -1 0 -11 24 -39 34 -39 3 0 6 7 6 15 0 8 8
15 18 14 10 0 12 -3 5 -6 -7 -2 -13 -9 -13 -14 0 -6 4 -7 10 -4 6 4 7 -1 3
-11 -4 -11 1 -20 13 -27 19 -11 24 -13 57 -15 25 -3 11 -22 -16 -23 -22 0 -22
0 2 -10 14 -6 21 -15 17 -24 -3 -8 -1 -17 3 -20 12 -7 34 22 26 35 -3 5 -1 10
4 10 13 0 14 -20 2 -39 -10 -16 -3 -44 9 -36 5 3 6 -5 3 -17 -4 -19 -3 -20 6
-8 9 12 11 10 11 -13 0 -15 8 -42 17 -60 13 -25 17 -58 18 -148 0 -65 3 -115
8 -112 4 2 7 -1 7 -6 0 -6 -3 -11 -7 -11 -5 0 -16 -12 -26 -25 -13 -19 -14
-23 -3 -19 8 3 17 12 20 20 3 8 10 14 15 14 6 0 2 -14 -7 -30 -9 -17 -22 -28
-29 -26 -8 3 -10 -1 -6 -11 5 -13 3 -14 -12 -5 -18 10 -45 -5 -45 -24 0 -5 5
-3 12 4 17 17 33 15 18 -3 -7 -8 -18 -15 -24 -15 -10 0 -40 -38 -39 -50 0 -3
-8 -11 -18 -18 -11 -7 -19 -20 -19 -28 0 -8 -4 -14 -10 -14 -5 0 -7 8 -3 18 3
9 3 14 -1 10 -4 -3 -8 -13 -10 -21 -1 -8 -10 -22 -20 -32 -9 -10 -24 -29 -33
-42 -9 -13 -21 -22 -27 -20 -6 2 -24 -10 -41 -27 -17 -17 -38 -35 -47 -41 -50
-30 -128 -90 -163 -125 -22 -22 -46 -40 -54 -40 -8 0 -24 -8 -35 -18 -12 -10
-41 -26 -66 -36 -74 -30 -94 -40 -110 -52 -29 -24 -171 -94 -189 -94 -10 0
-24 -7 -31 -16 -16 -18 -75 -44 -102 -44 -11 0 -34 -7 -51 -16 -56 -30 -63
-32 -120 -45 -37 -9 -57 -19 -57 -28 0 -8 -3 -11 -6 -8 -4 4 -19 -2 -34 -13
-16 -11 -38 -20 -50 -20 -12 0 -36 -11 -53 -24 -23 -18 -51 -26 -102 -31 -38
-4 -88 -16 -109 -26 -54 -26 -56 -25 -56 20 0 22 -6 44 -15 51 -22 18 -127 24
-197 11 -116 -21 -330 -125 -406 -198 -52 -49 -61 -53 -126 -63 -39 -6 -104
-14 -143 -17 -40 -3 -73 -9 -73 -13 0 -4 -11 -5 -25 -2 -14 2 -31 0 -38 -6 -7
-6 -78 -14 -159 -18 -146 -7 -147 -7 -182 -38 -54 -48 -89 -73 -113 -80 -12
-4 -25 -15 -28 -25 -8 -27 -162 -187 -171 -178 -25 25 -20 290 6 322 9 11 25
140 21 169 -2 12 1 16 9 11 9 -6 11 2 8 28 -2 20 0 33 4 31 4 -3 5 8 2 24 -4
21 -2 31 10 35 9 4 16 2 16 -2 0 -5 -5 -11 -12 -13 -9 -3 -9 -12 1 -36 13 -30
23 -37 46 -32 6 1 15 3 22 4 7 1 22 11 33 21 14 13 24 16 28 8 4 -6 16 -13 27
-16 11 -2 2 -5 -21 -6 -22 0 -44 -4 -48 -8 -3 -4 -12 -8 -19 -9 -7 -2 -22 -6
-34 -10 -18 -5 -25 -1 -32 17 l-10 24 0 -26 c-1 -27 22 -45 41 -33 6 4 39 6
75 5 38 -1 62 3 59 8 -4 5 -2 12 4 16 5 3 10 1 10 -4 0 -12 43 -15 54 -4 9 9
12 10 64 12 30 2 33 4 17 11 -18 8 -17 9 8 9 19 1 26 -3 21 -11 -5 -8 2 -9 27
-4 19 4 54 10 77 13 28 4 48 13 55 25 7 11 27 26 46 34 39 16 41 17 41 5 0 -5
-15 -12 -32 -15 -27 -6 -30 -9 -17 -16 15 -9 99 10 169 37 24 10 28 10 65 12
30 1 35 4 35 26 0 16 6 25 16 25 13 0 14 -3 5 -14 -17 -21 1 -27 32 -11 14 7
28 11 31 8 7 -7 96 30 96 39 0 4 7 5 15 2 20 -8 68 24 59 38 -5 8 -1 9 10 5
24 -9 116 24 116 42 0 11 3 11 16 0 11 -9 17 -10 23 -1 3 6 28 16 55 22 50 11
92 29 69 30 -20 0 -15 17 6 23 14 3 18 1 14 -9 -4 -10 0 -12 11 -8 9 3 16 10
16 15 0 5 12 9 28 9 21 0 24 2 12 10 -12 8 -9 10 12 10 18 0 29 7 33 20 3 11
19 27 36 37 31 19 36 29 17 36 -7 2 3 11 22 19 19 9 39 12 43 8 12 -11 47 0
47 14 0 20 16 36 39 41 13 2 42 13 65 25 23 11 47 20 53 20 6 0 13 7 17 15 3
8 14 15 25 15 11 0 28 10 38 23 10 12 23 22 28 22 17 1 65 28 65 37 0 13 -38
9 -43 -4 -3 -8 -6 -5 -6 6 -1 16 4 18 36 13 25 -4 42 -2 53 8 8 7 31 15 50 17
19 2 36 9 36 16 3 23 4 24 17 14 18 -16 79 21 71 43 -7 18 22 21 30 3 5 -10 7
-10 12 0 3 6 10 12 15 12 6 0 19 9 31 20 12 11 28 20 36 20 9 0 13 7 9 20 -6
24 17 52 37 44 12 -5 35 31 49 76 2 8 3 2 1 -15 l-4 -30 20 26 c10 14 40 38
65 54 25 16 45 37 45 46 0 10 9 21 21 24 12 4 18 13 15 20 -3 10 0 12 11 8 13
-5 14 -3 3 16 -8 16 -8 26 0 36 13 15 50 27 50 15 0 -4 -9 -10 -21 -13 -12 -3
-18 -10 -14 -17 12 -19 69 34 80 73 10 36 34 70 36 51 0 -5 7 16 14 46 17 64
20 280 5 280 -5 0 -10 5 -10 11 0 5 4 8 9 5 9 -6 -3 71 -13 81 -3 4 -6 1 -6
-5 0 -7 -8 -12 -17 -12 -14 0 -15 2 -4 9 9 6 10 11 2 15 -19 12 -12 33 13 38
18 4 26 0 30 -14 5 -22 37 -21 44 1 3 9 -1 11 -16 7 -13 -4 -22 -1 -25 8 -5
12 -13 13 -44 4 -27 -7 -38 -7 -41 1 -2 6 -10 11 -17 11 -7 0 -15 6 -18 13 -3
9 -11 9 -33 1 -31 -11 -104 -7 -104 6 0 5 9 6 20 3 11 -3 20 0 20 6 0 6 7 11
15 11 8 0 14 -3 12 -7 -1 -5 1 -9 6 -10 9 -4 10 -1 2 20 -8 18 -40 23 -50 7
-3 -5 -12 -10 -18 -10 -8 0 -7 3 2 9 22 14 -30 43 -65 36 -24 -4 -25 -4 -9 4
18 9 18 10 -7 10 -14 1 -28 5 -30 10 -1 5 -16 11 -33 13 -16 1 -32 5 -35 8 -8
8 -104 42 -130 46 l-25 4 25 -9 c20 -7 21 -9 6 -10 -11 -1 -30 9 -43 21 -13
12 -26 18 -30 15 -3 -4 1 -13 10 -20 15 -10 13 -12 -17 -12 -19 0 -32 4 -29 8
3 4 -18 5 -45 1 -28 -3 -52 -2 -55 3 -4 6 17 9 52 9 41 -1 57 2 54 10 -5 13
-60 24 -108 23 -29 -1 -30 -1 -5 -9 24 -8 24 -8 -7 -9 -17 -1 -35 4 -38 9 -3
6 -1 10 6 10 32 0 -11 21 -45 22 -20 1 -39 5 -43 10 -3 5 -44 9 -92 8 -47 -1
-90 -1 -96 1 -5 1 -35 4 -65 5 -30 1 -72 5 -93 9 -27 5 -48 2 -80 -12 -33 -16
-53 -19 -92 -13 l-50 7 65 3 65 3 -60 7 -60 7 67 -1 c123 -3 60 11 -84 18
-186 9 -180 9 -190 -9 -6 -10 -26 -16 -66 -17 l-57 -1 60 -6 60 -6 -75 -6
c-41 -4 -102 -2 -135 3 -139 21 -155 21 -156 1 0 -16 -1 -16 -9 2 -7 19 -8 19
-15 2 -5 -11 -14 -16 -26 -12 -56 15 -64 16 -49 6 13 -9 13 -11 -2 -11 -9 0
-18 5 -20 11 -2 5 -11 7 -21 4 -9 -4 -14 -12 -10 -18 3 -6 1 -7 -5 -3 -7 4
-12 37 -12 84 -1 42 -5 123 -9 179 -8 91 -12 105 -39 140 -17 21 -34 55 -37
76 -4 21 -17 45 -31 56 -13 10 -24 23 -24 28 0 16 -89 103 -105 103 -8 0 -15
7 -15 15 0 9 -12 21 -27 28 -16 6 -37 20 -47 29 -18 17 -21 17 -38 1 -20 -18
-11 -38 23 -48 10 -4 19 -12 19 -19 0 -7 10 -18 23 -23 13 -6 41 -30 63 -53
21 -23 51 -54 67 -70 15 -15 27 -35 27 -43 0 -23 27 -82 44 -97 9 -7 16 -22
16 -34 0 -12 7 -31 15 -42 8 -11 15 -41 15 -71 0 -28 5 -55 10 -58 6 -3 10
-49 10 -103 0 -75 -3 -93 -12 -84 -24 24 -76 14 -108 -20 -16 -18 -30 -41 -30
-50 0 -9 -13 -26 -30 -38 -16 -12 -30 -29 -30 -38 0 -10 -7 -28 -16 -40 -8
-12 -12 -27 -8 -34 5 -8 2 -9 -9 -5 -12 5 -22 -3 -34 -26 -9 -18 -16 -35 -15
-39 1 -5 -3 -8 -9 -8 -5 0 -8 -4 -4 -9 3 -5 -3 -16 -13 -23 -22 -17 -52 -63
-52 -82 0 -8 -5 -18 -11 -22 -8 -4 -9 1 -5 17 6 21 5 21 -9 -3 -9 -16 -22 -28
-30 -28 -7 0 -16 -4 -19 -9 -4 -5 2 -7 13 -4 10 3 21 1 24 -4 3 -5 -6 -9 -20
-8 -43 0 -37 21 21 81 31 31 56 62 56 70 0 7 13 28 29 47 38 42 101 136 101
149 0 5 7 16 15 24 8 9 15 28 15 44 0 44 31 183 45 204 8 10 11 24 9 31 -3 7
-1 16 5 20 6 3 11 40 11 85 0 89 -19 139 -92 245 -38 56 -71 84 -152 132 -11
7 -24 21 -28 33 -4 11 -18 24 -30 29 -13 5 -36 23 -52 40 -17 17 -40 31 -53
31 -12 0 -38 14 -56 30 -19 17 -40 30 -46 30 -6 0 -11 4 -11 9 0 5 -9 13 -21
16 -12 4 -30 16 -40 26 -10 10 -25 19 -32 19 -8 0 -19 11 -26 24 -12 22 -17
23 -113 21 -108 -3 -144 -14 -57 -17 30 -1 71 -3 92 -4 20 0 37 3 37 7 0 5 5
9 11 9 6 0 8 -7 5 -15 -3 -8 -9 -22 -12 -30 -4 -9 0 -15 9 -15 8 0 17 -5 19
-12 2 -6 14 -13 25 -14 12 -2 42 -22 67 -45 25 -23 56 -47 68 -54 52 -27 73
-41 81 -52 4 -7 14 -13 22 -13 7 0 25 -13 38 -30 14 -16 29 -30 34 -30 4 0 13
-8 20 -19 6 -10 33 -29 58 -41 26 -12 49 -29 52 -37 3 -8 15 -25 27 -38 37
-41 46 -54 46 -69 0 -8 8 -21 18 -28 46 -32 55 -197 15 -256 -10 -15 -21 -34
-25 -42 -4 -10 -7 -6 -7 12 -1 14 4 29 9 31 6 3 5 4 -2 3 -7 -1 -15 -13 -18
-26 -6 -27 -30 -39 -30 -15 0 9 4 14 9 11 5 -3 12 5 15 19 4 14 13 25 21 25 8
0 15 7 15 16 0 14 -3 14 -15 4 -9 -8 -15 -9 -15 -2 0 6 5 14 10 17 13 8 13
165 0 185 -6 11 -27 15 -67 15 -50 0 -62 -4 -86 -28 -15 -15 -32 -25 -37 -22
-5 3 -37 -4 -69 -16 -52 -18 -76 -21 -179 -18 -66 2 -118 1 -115 -3 2 -5 -1
-8 -6 -8 -6 0 -11 3 -11 8 0 12 -52 32 -82 32 -15 0 -28 4 -28 9 0 5 -20 8
-45 8 -40 0 -45 -3 -46 -24 -1 -13 -2 -29 -3 -35 -1 -7 4 -20 11 -29 9 -11 13
-42 12 -100 -2 -46 -4 -78 -7 -70 -3 8 -9 6 -19 -8 -8 -12 -22 -21 -31 -21
-22 0 -82 -60 -82 -82 0 -10 -7 -18 -15 -18 -8 0 -15 -5 -15 -11 0 -6 10 -9
23 -7 15 2 22 10 22 25 0 12 9 31 19 42 22 24 36 20 16 -4 -8 -10 -9 -15 -1
-15 6 0 10 -16 10 -37 l-2 -38 -6 34 c-3 19 -11 36 -17 38 -7 2 -10 -6 -7 -21
6 -27 5 -27 -62 -43 -24 -5 -39 -14 -37 -22 1 -7 -7 -15 -18 -18 -11 -3 -20
-10 -20 -15 0 -6 11 -7 25 -4 16 4 25 2 25 -5 0 -7 -12 -9 -32 -7 -43 7 -100
-28 -94 -56 2 -6 1 -8 -1 -3 -8 13 -50 8 -63 -8 -7 -8 -19 -15 -26 -15 -8 0
-14 -4 -14 -10 0 -5 6 -7 14 -4 8 3 16 2 19 -3 3 -5 -13 -9 -35 -10 -25 -1
-49 -9 -62 -22 -12 -12 -29 -21 -38 -21 -22 0 -43 -26 -26 -33 7 -2 1 -4 -14
-3 -14 0 -24 4 -21 9 2 4 0 7 -6 7 -5 0 -13 -5 -17 -11 -5 -8 -9 -7 -14 1 -5
8 -15 10 -26 5 -11 -5 -44 -10 -74 -12 -76 -5 -79 -7 -73 -45 4 -29 3 -31 -9
-16 -15 20 -108 35 -108 18 0 -6 -10 -8 -24 -4 -18 4 -27 1 -36 -15 -6 -12
-20 -21 -33 -20 l-22 0 23 9 c12 5 22 14 22 20 0 6 -5 8 -11 4 -15 -9 -305 -8
-320 2 -8 4 -9 -1 -4 -17 4 -17 3 -20 -3 -10 -6 8 -15 10 -23 5 -8 -5 -22 -10
-32 -11 -15 -3 -16 -1 -5 11 7 7 19 11 25 9 7 -3 13 0 13 6 0 6 -9 11 -20 11
-11 0 -20 -4 -20 -8 0 -5 -11 -14 -24 -20 -18 -8 -27 -7 -39 6 -9 9 -20 12
-24 8 -4 -4 -2 -10 4 -14 6 -4 -12 -7 -40 -6 -40 0 -53 4 -55 17 -5 24 -52 23
-52 -1 0 -11 -7 -18 -21 -18 -19 0 -19 1 -3 13 10 7 15 15 12 19 -4 3 -15 -3
-25 -13 -11 -11 -25 -17 -31 -15 -7 2 -12 -3 -12 -12 0 -9 -6 -16 -12 -16 -10
0 -9 -3 1 -9 10 -7 10 -10 1 -16 -7 -4 -16 -1 -21 6 -8 12 -11 12 -19 -1 -7
-11 -5 -17 8 -22 14 -5 13 -7 -5 -7 -15 -1 -23 -7 -23 -18 -1 -33 -28 -56 -67
-57 -34 -1 -39 -5 -62 -50 -23 -45 -24 -49 -8 -61 9 -6 14 -15 10 -18 -3 -4
24 -7 60 -7 41 0 67 4 67 11 0 5 5 7 10 4 6 -3 10 -1 10 4 0 13 -27 15 -34 3
-7 -12 -74 -13 -81 -2 -3 6 -16 10 -28 10 l-21 0 22 16 c14 10 22 25 22 45 0
18 4 28 10 24 6 -3 8 -26 6 -51 -3 -32 -1 -44 9 -44 7 0 16 6 19 13 5 9 7 9
12 0 4 -9 10 -10 24 -1 14 9 25 9 45 0 15 -7 24 -8 20 -2 -3 5 2 10 11 10 9 0
39 10 65 23 47 22 61 41 37 50 -7 2 -1 4 14 3 20 -1 24 -4 16 -14 -16 -18 -8
-21 37 -12 37 7 38 8 10 10 -29 2 -30 2 -5 9 14 5 29 4 35 -1 5 -4 18 -8 30
-8 16 0 17 2 5 10 -17 12 420 7 439 -4 6 -4 11 -2 11 3 0 6 5 11 11 11 5 0 8
-4 5 -8 -5 -9 149 -16 163 -7 5 3 87 7 181 10 95 3 181 10 191 16 11 6 51 13
90 16 48 4 69 10 69 19 0 17 16 18 24 2 5 -10 7 -10 12 0 3 6 15 12 27 12 18
0 19 2 7 10 -21 13 -3 13 22 -1 16 -8 19 -8 13 1 -5 9 -2 10 13 6 14 -5 24 -1
31 11 6 10 11 12 11 6 0 -25 80 -4 80 21 0 11 -18 6 -35 -10 -20 -20 -33 -10
-15 12 10 11 23 14 46 9 34 -6 57 10 27 19 -10 2 -1 2 20 -1 24 -3 37 -1 37 6
0 6 5 11 11 11 5 0 7 -4 4 -10 -3 -5 -2 -10 4 -10 5 0 13 5 16 10 4 6 14 9 23
8 13 -2 16 3 14 22 -1 17 1 21 6 12 7 -10 16 -9 43 5 19 10 35 21 37 25 2 4
16 5 31 2 16 -4 32 -1 35 5 4 6 12 9 17 6 5 -4 9 -1 9 4 0 6 -4 11 -10 11 -5
0 -10 10 -10 21 0 17 4 20 23 15 12 -3 31 -6 42 -7 11 -1 4 -5 -15 -9 l-35 -7
38 -2 c21 0 46 3 56 9 10 5 33 12 52 15 18 3 36 10 39 14 3 5 15 12 28 15 17
6 22 13 18 29 -3 12 -3 16 0 10 8 -18 54 -16 76 4 20 18 26 42 5 25 -8 -7 -17
-7 -30 2 -15 11 -11 13 29 12 29 0 48 5 54 14 12 20 4 26 -15 10 -9 -7 -18
-11 -20 -8 -9 8 22 29 44 31 15 1 23 10 27 34 4 19 19 44 35 57 16 14 29 34
29 45 0 12 5 21 10 21 6 0 10 7 10 15 0 8 -5 15 -11 15 -5 0 -7 5 -4 10 3 6
11 10 17 10 7 0 8 -14 3 -42 -3 -24 -8 -53 -9 -66 -1 -13 -9 -31 -18 -41 -8
-10 -18 -35 -22 -57 -4 -21 -15 -50 -25 -64 -9 -14 -23 -38 -31 -55 -8 -16
-25 -38 -37 -48 -13 -10 -23 -23 -23 -28 0 -11 -30 -47 -87 -107 -24 -24 -43
-48 -43 -53 0 -5 -6 -9 -13 -9 -7 0 -23 -13 -37 -30 -14 -16 -29 -30 -33 -30
-11 0 -46 -42 -47 -55 0 -14 -70 -32 -152 -40 -37 -4 -70 -11 -73 -16 -8 -12
-252 -12 -260 1 -4 6 -103 10 -263 10 -223 0 -261 -2 -281 -16 -19 -14 -39
-16 -110 -10 -47 3 -106 13 -131 22 -35 13 -67 15 -144 10 -54 -3 -104 -10
-111 -16 -7 -6 -35 -11 -62 -11 -83 0 -355 -17 -418 -27 -33 -4 -107 -7 -164
-6 -98 2 -106 4 -148 33 -24 17 -48 31 -53 31 -6 0 -10 5 -10 10 0 6 -13 10
-28 10 -35 0 -84 56 -57 66 8 3 15 12 15 20 0 18 72 90 99 99 12 3 21 10 21
15 0 4 21 20 48 36 26 15 59 37 74 49 14 12 45 25 69 29 24 4 49 12 56 18 7 6
13 8 13 4 0 -4 13 0 28 8 16 8 62 22 103 31 41 9 82 21 92 27 11 5 36 8 56 7
20 -2 41 0 47 4 17 10 262 11 276 0 16 -11 192 0 263 16 28 6 74 16 103 22 28
6 52 15 52 21 0 6 3 8 7 5 3 -4 11 -3 18 3 6 5 35 13 65 19 109 19 156 38 198
78 7 7 23 13 34 13 11 0 22 8 25 20 3 12 14 20 27 20 13 0 31 13 44 30 13 17
27 30 32 30 13 0 79 72 80 86 0 6 9 19 19 28 21 19 60 97 81 164 10 33 11 45
1 55 -18 18 -45 -5 -51 -44 -5 -35 -39 -99 -52 -99 -5 0 -8 -6 -8 -14 0 -7
-13 -27 -30 -44 -16 -18 -30 -39 -30 -47 0 -8 -5 -15 -10 -15 -6 0 -23 -12
-38 -27 -54 -55 -112 -93 -144 -95 -18 -1 -42 -9 -53 -19 -22 -19 -104 -44
-178 -54 -26 -4 -54 -13 -60 -20 -12 -12 -51 -22 -172 -45 -33 -6 -121 -10
-195 -9 -224 4 -338 1 -345 -11 -3 -5 -25 -10 -48 -10 -57 0 -183 -27 -221
-48 -35 -18 -111 -41 -141 -42 -12 0 -36 -13 -55 -30 -19 -16 -45 -29 -57 -30
-12 0 -26 -6 -30 -13 -4 -7 -28 -28 -53 -46 -55 -42 -125 -112 -132 -132 -8
-22 -38 8 -38 38 0 13 -10 47 -21 74 -18 42 -21 62 -16 121 4 42 12 77 22 87
8 10 15 32 15 49 0 17 6 37 13 44 7 7 21 33 31 58 9 25 31 64 47 88 17 23 27
42 22 42 -4 0 -1 6 7 13 19 15 90 103 90 111 0 6 23 33 75 91 17 18 45 51 64
74 18 22 41 43 51 46 10 3 20 14 23 25 3 11 17 24 31 30 14 5 26 15 26 22 0
19 230 238 257 244 13 4 23 10 23 14 0 4 28 22 63 40 34 18 66 39 70 47 4 7
16 13 26 13 10 0 28 12 42 26 13 14 44 35 69 47 25 11 52 29 61 39 9 10 23 18
30 18 8 0 19 8 25 18 6 10 33 29 60 42 27 14 51 28 54 31 12 15 111 59 132 59
13 0 48 9 78 20 36 13 58 16 64 10 11 -11 159 -14 170 -3 6 6 60 10 321 19 66
2 129 9 140 14 33 16 275 30 502 30 117 0 213 4 213 9 0 22 564 31 603 9 12
-7 82 -17 156 -23 99 -7 136 -14 139 -24 3 -8 0 -11 -7 -7 -6 4 -11 2 -11 -3
0 -6 9 -11 21 -11 11 0 17 4 14 10 -11 18 45 22 128 10 45 -7 87 -16 92 -20 6
-4 32 -8 59 -9 28 -1 54 -5 59 -8 6 -3 69 -9 141 -12 106 -5 130 -9 128 -20
-2 -11 0 -12 10 -4 16 14 95 -5 153 -36 22 -12 53 -21 70 -21 16 -1 41 -7 54
-14 14 -8 31 -11 39 -9 13 6 104 -35 110 -49 2 -5 15 -8 28 -8 13 0 24 -2 24
-4 0 -2 -40 -44 -90 -94 -49 -50 -90 -98 -90 -107 0 -8 -3 -15 -8 -15 -7 0
-86 -69 -144 -126 -27 -26 -41 -27 -93 -4 -11 5 -50 16 -86 24 -69 17 -317 20
-509 7 l-95 -6 0 -30 c0 -23 4 -30 20 -30 11 0 110 4 220 8 185 7 240 4 378
-19 20 -3 39 -10 42 -14 3 -4 -26 -27 -63 -50 -37 -24 -78 -50 -92 -60 -14 -9
-40 -23 -57 -31 -20 -8 -33 -21 -33 -32 0 -14 7 -17 33 -14 39 4 117 36 117
48 0 5 25 20 55 34 30 13 55 28 55 32 0 11 58 43 76 43 7 0 26 14 41 30 14 17
30 30 35 30 13 0 196 188 215 221 10 16 20 29 24 29 4 0 25 17 47 38 22 20 78
71 124 112 46 41 112 110 148 154 61 73 135 146 150 146 3 0 23 -16 44 -35z
m92 -557 c14 -1 50 -28 36 -28 -16 0 -16 -32 1 -49 10 -11 9 -13 -3 -9 -8 3
-16 19 -18 37 -2 23 -7 31 -18 27 -8 -3 -14 1 -14 9 0 8 -4 15 -9 15 -6 0 -9
-9 -8 -20 1 -11 5 -20 9 -20 4 0 8 -7 8 -16 0 -8 5 -12 10 -9 6 3 10 -3 10
-14 0 -11 -5 -23 -11 -27 -7 -4 -8 -20 -4 -43 4 -20 4 -33 0 -29 -10 10 -47
-11 -40 -23 9 -14 -102 -11 -126 4 -17 10 -23 10 -26 0 -8 -21 -32 -15 -28 6
4 22 7 25 124 134 55 52 86 75 91 67 4 -6 11 -12 16 -12z m127 -99 c7 -11 16
-19 21 -19 10 0 85 -81 86 -93 0 -5 18 -26 40 -48 42 -42 50 -59 26 -59 -7 0
-27 -7 -42 -15 l-29 -15 28 0 c15 0 27 4 27 9 0 6 9 9 19 8 11 0 18 -4 15 -8
-2 -4 4 -13 13 -19 14 -8 4 -9 -42 -5 -74 8 -84 14 -54 32 13 7 17 13 9 12
-29 -3 -39 1 -70 27 -17 15 -33 24 -37 21 -9 -10 6 -54 24 -72 9 -9 16 -31 16
-48 0 -18 5 -36 11 -40 6 -5 2 -6 -9 -3 -15 4 -23 0 -30 -16 -7 -16 -22 -25
-47 -29 -20 -3 -35 -2 -32 3 3 4 0 8 -7 8 -6 0 -18 8 -25 18 -13 16 -13 16
-14 0 0 -10 4 -18 10 -18 5 0 15 -10 21 -22 10 -19 7 -18 -20 7 -17 16 -30 34
-27 40 2 7 -2 12 -10 12 -7 0 -11 -4 -8 -9 3 -4 1 -8 -4 -8 -5 0 -17 17 -26
38 -9 20 -14 27 -12 16 3 -17 -1 -21 -20 -20 -13 0 -24 6 -24 13 0 6 -7 18
-15 26 -13 13 -12 16 2 22 10 3 14 3 11 -1 -8 -8 9 -44 20 -44 13 0 13 53 0
61 -10 6 -8 12 7 23 20 14 20 15 -4 24 -15 5 -20 11 -13 16 6 3 14 2 17 -4 5
-8 11 -8 20 0 7 6 29 12 49 13 19 2 38 6 42 9 3 4 13 1 21 -7 20 -21 51 -18
58 4 6 20 -4 45 -38 90 -12 17 -14 28 -7 35 19 19 11 33 -17 30 -26 -3 -27 -3
-4 4 14 4 27 14 29 21 3 9 0 11 -8 6 -11 -7 -29 10 -30 27 0 12 71 -34 83 -53z
m-118 -29 c3 -5 1 -10 -4 -10 -6 0 -11 5 -11 10 0 6 2 10 4 10 3 0 8 -4 11
-10z m56 -80 c5 0 9 5 9 12 0 6 3 9 6 6 3 -4 0 -16 -6 -29 -11 -20 -13 -20
-22 -6 -5 10 -14 17 -19 17 -6 0 -7 -5 -3 -12 4 -6 3 -8 -4 -5 -5 4 -8 16 -5
27 5 17 7 17 20 5 8 -8 19 -15 24 -15z m-331 12 c0 -10 -44 -32 -63 -32 -9 0
21 20 61 39 1 0 2 -3 2 -7z m16 -26 c-2 -35 -16 -43 -55 -30 l-34 11 31 6 c17
3 36 13 44 21 7 8 14 15 14 16 1 0 1 -11 0 -24z m69 -49 c6 0 12 -9 12 -20 2
-18 1 -18 -11 -2 -7 10 -18 15 -24 11 -15 -9 -34 2 -26 15 3 6 13 7 23 3 9 -3
21 -7 26 -7z m58 -49 c-4 -7 -8 -16 -8 -20 0 -3 -3 -9 -7 -13 -3 -4 -5 1 -3
12 2 10 4 21 4 26 1 4 6 7 12 7 6 0 7 -5 2 -12z m-2383 -38 c0 -5 -7 -10 -16
-10 -8 0 -12 5 -9 10 3 6 10 10 16 10 5 0 9 -4 9 -10z m40 -30 c0 -11 -2 -20
-4 -20 -2 0 -6 9 -9 20 -3 11 -1 20 4 20 5 0 9 -9 9 -20z m2820 -2 c0 -5 -12
-5 -27 -2 -40 10 -42 15 -5 12 18 -1 32 -6 32 -10z m-3530 -3 c0 -3 -9 -14
-20 -25 -23 -23 -26 -19 -8 10 12 18 28 27 28 15z m603 -20 c-3 -8 -14 -15
-26 -15 -19 0 -19 1 -2 20 19 21 37 18 28 -5z m2915 -17 c9 -12 20 -17 33 -13
23 8 60 -31 51 -54 -4 -10 -1 -12 9 -6 11 6 11 5 2 -5 -14 -15 -34 -4 -27 15
3 8 -1 22 -10 30 -14 14 -16 14 -16 1 0 -8 4 -17 8 -20 4 -2 9 -20 10 -40 3
-38 -16 -56 -58 -56 -14 0 -19 -4 -14 -12 4 -7 -6 -3 -22 8 -39 28 -65 38 -89
35 -19 -2 -19 -2 -2 11 17 13 16 14 -9 16 -42 3 -42 12 -1 12 34 0 36 2 28 23
-5 13 -6 30 -1 37 4 7 6 19 3 26 -11 29 84 22 105 -8z m26 17 c-4 -8 -11 -12
-16 -9 -6 4 -5 10 3 15 19 12 19 11 13 -6z m-3514 -5 c-8 -5 -22 -9 -30 -9
-10 0 -8 3 5 9 27 12 43 12 25 0z m515 0 c3 -5 1 -10 -4 -10 -6 0 -11 5 -11
10 0 6 2 10 4 10 3 0 8 -4 11 -10z m90 0 c-3 -5 -12 -10 -18 -10 -7 0 -6 4 3
10 19 12 23 12 15 0z m-115 -4 c0 -2 -18 -6 -39 -8 -22 -2 -37 0 -35 4 5 8 74
11 74 4z m194 -47 c-1 -28 -7 -56 -13 -62 -8 -8 -11 -8 -11 1 0 7 4 12 8 12 5
0 6 23 2 50 -4 33 -3 50 4 50 7 0 10 -21 10 -51z m2616 -29 c0 -5 -7 -10 -15
-10 -8 0 -15 -7 -15 -15 0 -8 -9 -15 -20 -15 -11 0 -20 5 -20 11 0 5 -4 7 -10
4 -6 -3 -7 1 -4 9 8 21 24 21 24 0 0 -8 5 -12 10 -9 6 4 8 10 5 15 -5 7 10 15
38 19 4 0 7 -3 7 -9z m4 -37 c6 -16 -8 -33 -28 -33 -5 0 -6 -3 -3 -7 4 -3 18
0 32 7 22 12 30 11 63 -5 20 -11 47 -18 60 -17 20 3 21 1 11 -16 -11 -17 -8
-23 14 -45 15 -13 27 -32 27 -41 0 -9 5 -16 11 -16 5 0 8 4 5 8 -2 4 -1 14 5
22 7 12 9 10 9 -7 0 -12 -4 -24 -8 -27 -5 -3 -10 -35 -11 -72 -1 -42 -7 -72
-17 -81 -8 -8 -14 -11 -14 -7 0 5 -5 3 -12 -4 -22 -22 -63 -14 -86 18 -12 16
-22 35 -22 43 0 26 -33 112 -51 130 -20 22 -31 57 -18 57 5 0 9 5 9 10 0 6 -7
10 -16 8 -10 -2 -19 3 -22 11 -3 8 0 11 7 7 7 -5 11 2 11 18 0 20 5 26 21 26
18 0 19 2 9 15 -7 9 -8 15 -2 15 5 0 13 -8 16 -17z m314 -5 c19 -19 14 -38
-10 -37 -17 1 -19 2 -5 6 21 5 23 23 2 23 -8 0 -15 5 -15 10 0 14 13 13 28 -2z
m-38 -23 c0 -17 -5 -25 -17 -25 -13 0 -15 2 -5 8 7 5 10 16 6 25 -3 10 -1 17
5 17 6 0 11 -11 11 -25z m-330 -5 c0 -5 -2 -10 -4 -10 -3 0 -8 5 -11 10 -3 6
-1 10 4 10 6 0 11 -4 11 -10z m-2661 -36 c4 3 8 -15 8 -40 1 -25 -2 -42 -8
-38 -5 3 -7 10 -4 15 4 5 2 9 -2 9 -5 0 -9 17 -10 38 0 20 2 31 4 24 3 -6 8
-10 12 -8z m66 6 c3 -5 1 -10 -4 -10 -6 0 -11 5 -11 10 0 6 2 10 4 10 3 0 8
-4 11 -10z m2995 6 c0 -2 2 -10 5 -18 4 -9 -4 -13 -25 -14 -16 -1 -30 3 -30 7
0 5 10 9 23 10 21 1 21 1 -3 9 l-25 8 28 1 c15 1 27 -1 27 -3z m0 -52 c0 -2
-7 -4 -15 -4 -8 0 -15 4 -15 10 0 5 7 7 15 4 8 -4 15 -8 15 -10z m45 -52 c-8
-8 -25 10 -25 26 0 13 2 13 14 -4 8 -10 13 -21 11 -22z m23 -52 c3 -7 -1 -10
-9 -7 -8 2 -13 10 -11 16 3 15 -15 14 -21 -1 -3 -7 -6 -3 -6 9 -1 12 -9 24
-20 28 -11 3 -22 13 -25 21 -4 9 14 1 41 -19 26 -19 49 -40 51 -47z m-3102 36
c-4 -23 -3 -35 6 -38 8 -3 7 -6 -3 -10 -10 -4 -16 0 -17 10 -1 24 9 72 15 72
3 0 2 -15 -1 -34z m2964 24 c0 -5 -5 -10 -11 -10 -5 0 -7 5 -4 10 3 6 8 10 11
10 2 0 4 -4 4 -10z m-3640 -20 c0 -5 -7 -10 -15 -10 -8 0 -15 -7 -15 -15 0 -8
-4 -15 -9 -15 -16 0 0 39 18 43 9 3 17 5 19 6 1 0 2 -3 2 -9z m1700 0 c14 -4
19 -8 12 -9 -7 -1 -11 -5 -7 -10 3 -5 1 -12 -4 -15 -5 -3 -11 3 -14 14 -4 15
-16 20 -63 23 l-59 3 55 1 c30 1 66 -3 80 -7z m1950 -15 c0 -8 -4 -15 -10 -15
-5 0 -10 7 -10 15 0 8 5 15 10 15 6 0 10 -7 10 -15z m58 3 c15 -15 16 -28 2
-28 -5 0 -10 6 -10 14 0 8 -6 17 -12 19 -7 3 -8 6 -2 6 5 1 15 -4 22 -11z
m-2111 -4 c-3 -3 -12 -4 -19 -1 -8 3 -5 6 6 6 11 1 17 -2 13 -5z m153 -14 c0
-5 -4 -10 -10 -10 -5 0 -10 5 -10 10 0 6 5 10 10 10 6 0 10 -4 10 -10z m-87
-7 c-13 -2 -33 -2 -45 0 -13 2 -3 4 22 4 25 0 35 -2 23 -4z m394 1 c-3 -3 -12
-4 -19 -1 -8 3 -5 6 6 6 11 1 17 -2 13 -5z m1610 -51 c-3 -10 -5 -4 -5 12 0
17 2 24 5 18 2 -7 2 -21 0 -30z m136 0 c8 -16 12 -33 10 -39 -2 -6 3 -17 12
-24 8 -7 15 -17 15 -23 0 -5 -9 -2 -20 8 -11 10 -20 26 -19 34 2 28 -13 60
-30 64 -14 4 -14 5 1 6 10 0 24 -11 31 -26z m-1303 13 c0 -3 -4 -8 -10 -11 -5
-3 -10 -1 -10 4 0 6 5 11 10 11 6 0 10 -2 10 -4z m1104 -5 c3 -5 0 -11 -8 -14
-15 -6 -26 1 -26 15 0 11 27 10 34 -1z m-2632 -23 c-7 -7 -12 -8 -12 -2 0 6 3
14 7 17 3 4 9 5 12 2 2 -3 -1 -11 -7 -17z m-101 -8 c-8 -4 -11 -15 -7 -25 9
-24 -4 -65 -20 -65 -12 0 -12 4 -4 21 6 11 10 30 8 42 -3 20 21 51 32 41 2 -3
-2 -9 -9 -14z m2912 6 c3 -8 0 -16 -6 -19 -7 -3 -13 3 -13 14 0 22 12 25 19 5z
m-3884 -12 c2 -2 -13 -4 -33 -4 -30 0 -37 -3 -32 -15 3 -9 0 -15 -8 -15 -8 0
-16 9 -19 19 -3 15 -1 18 11 14 10 -4 13 -2 8 5 -4 7 5 9 31 5 21 -3 40 -7 42
-9z m2544 -1 c-7 -2 -21 -2 -30 0 -10 3 -4 5 12 5 17 0 24 -2 18 -5z m1216
-36 c1 -5 -3 -5 -9 -2 -5 3 -10 16 -9 28 0 21 1 21 9 2 5 -11 9 -24 9 -28z
m-2751 25 c13 11 15 10 9 -5 -4 -10 -7 -23 -7 -28 0 -6 -4 -8 -9 -4 -5 3 -11
-3 -14 -12 -2 -10 -4 0 -3 21 0 21 2 34 4 27 3 -9 8 -9 20 1z m122 -13 c-9
-15 -8 -24 1 -35 6 -8 10 -17 7 -19 -3 -3 -10 1 -17 8 -6 9 -22 12 -37 9 -16
-3 -21 -8 -14 -12 6 -4 -4 -7 -22 -7 -24 -1 -28 1 -14 6 14 5 16 10 8 15 -7 4
-12 15 -12 24 0 14 2 13 13 -3 17 -23 61 -14 77 15 6 11 13 20 16 20 2 0 0 -9
-6 -21z m2560 6 c4 3 3 -11 -3 -30 -6 -19 -17 -35 -24 -35 -10 0 -11 5 -3 19
5 11 10 30 11 43 0 13 3 17 6 10 2 -6 8 -10 13 -7z m-3006 -19 c-10 -8 -21
-12 -24 -9 -3 2 4 11 14 19 11 7 22 12 25 9 2 -3 -4 -12 -15 -19z m2176 -6 c0
-13 -11 -13 -30 0 -12 8 -11 10 8 10 12 0 22 -4 22 -10z m1050 -33 c0 -5 -7
-4 -16 4 -13 10 -17 10 -26 -2 -8 -11 -9 -10 -4 4 3 10 6 23 6 29 0 6 9 3 20
-7 11 -10 20 -22 20 -28z m-2710 23 c0 -5 -4 -10 -10 -10 -5 0 -10 5 -10 10 0
6 5 10 10 10 6 0 10 -4 10 -10z m-292 -31 c-17 -10 -28 -2 -21 17 4 11 8 12
20 3 11 -10 11 -14 1 -20z m2046 16 c11 -8 15 -15 10 -15 -6 0 -19 7 -30 15
-10 8 -14 14 -9 14 6 0 19 -6 29 -14z m-3119 -5 c-27 -12 -43 -12 -25 0 8 5
22 9 30 9 10 0 8 -3 -5 -9z m3070 0 c18 -8 18 -9 -5 -9 -14 0 -32 4 -40 9 -12
8 -12 10 5 9 11 0 29 -4 40 -9z m730 0 c3 -5 1 -10 -4 -10 -6 0 -11 5 -11 10
0 6 2 10 4 10 3 0 8 -4 11 -10z m-3727 -7 c-10 -2 -26 -2 -35 0 -10 3 -2 5 17
5 19 0 27 -2 18 -5z m3654 -5 c-9 -9 -15 -9 -24 0 -9 9 -7 12 12 12 19 0 21
-3 12 -12z m-2955 -14 c-3 -3 -12 -4 -19 -1 -8 3 -5 6 6 6 11 1 17 -2 13 -5z
m269 -32 c-18 -16 -18 -16 -6 6 6 13 14 21 18 18 3 -4 -2 -14 -12 -24z m-1130
3 c-8 -8 -20 -15 -27 -15 -9 0 -8 4 1 15 7 8 19 15 27 15 12 0 12 -2 -1 -15z
m889 5 c-3 -5 -10 -10 -16 -10 -5 0 -9 5 -9 10 0 6 7 10 16 10 8 0 12 -4 9
-10z m275 -14 c0 -8 -7 -16 -15 -20 -12 -4 -13 -2 -2 14 14 24 17 25 17 6z
m3059 -9 c8 -10 7 -14 -4 -14 -8 0 -15 6 -15 14 0 7 2 13 4 13 2 0 9 -6 15
-13z m-3499 -32 c9 -10 9 -15 1 -15 -6 0 -11 5 -11 10 0 6 -5 10 -11 10 -6 0
-9 -7 -6 -15 4 -8 2 -17 -3 -20 -6 -4 -10 1 -10 9 0 10 -10 16 -27 17 l-28 1
30 8 c46 12 52 11 65 -5z m52 3 c-7 -7 -16 -7 -28 0 -14 8 -13 10 10 10 18 0
24 -4 18 -10z m358 -37 c0 -4 -7 -8 -15 -8 -16 0 -20 9 -9 20 8 8 24 -1 24
-12z m-1273 -7 c-3 -3 -12 -4 -19 -1 -8 3 -5 6 6 6 11 1 17 -2 13 -5z m1200
-14 c-3 -11 -1 -20 4 -20 5 0 9 8 9 18 0 14 2 15 10 2 5 -8 10 -24 10 -35 0
-17 -2 -17 -10 -5 -8 13 -12 12 -25 -6 -18 -27 -77 -51 -68 -28 3 8 13 14 24
14 13 0 22 12 30 40 12 40 26 57 16 20z m2753 -10 c0 -5 -4 -10 -10 -10 -5 0
-10 5 -10 10 0 6 5 10 10 10 6 0 10 -4 10 -10z m-3330 -10 c13 -8 13 -10 -2
-10 -9 0 -20 5 -23 10 -8 13 5 13 25 0z m-1020 -44 c0 -8 6 -17 13 -19 7 -3 5
-6 -5 -6 -10 -1 -18 1 -18 3 0 2 -3 11 -6 20 -3 9 -1 16 5 16 6 0 11 -6 11
-14z m-706 -11 c-4 -8 -8 -15 -10 -15 -2 0 -4 7 -4 15 0 8 4 15 10 15 5 0 7
-7 4 -15z m763 9 c-3 -3 -12 -4 -19 -1 -8 3 -5 6 6 6 11 1 17 -2 13 -5z m-264
-11 c-35 -2 -91 -2 -125 0 -35 2 -7 3 62 3 69 0 97 -1 63 -3z m184 0 c-11 -10
-58 -13 -52 -2 4 5 18 9 32 9 15 0 23 -3 20 -7z m1696 -13 c-3 -11 -9 -20 -15
-20 -5 0 -4 9 2 20 6 11 12 20 14 20 2 0 2 -9 -1 -20z m-1606 4 c-3 -3 -12 -4
-19 -1 -8 3 -5 6 6 6 11 1 17 -2 13 -5z m689 -13 c11 9 14 8 14 -4 0 -8 -7
-20 -15 -27 -9 -8 -15 -8 -15 -2 0 6 -2 16 -3 24 -2 7 -2 9 1 5 2 -4 10 -3 18
4z m774 -11 c0 -5 -4 -10 -10 -10 -5 0 -10 5 -10 10 0 6 5 10 10 10 6 0 10 -4
10 -10z m3220 -16 c0 -8 -5 -12 -10 -9 -6 4 -8 11 -5 16 9 14 15 11 15 -7z
m29 -29 c0 -5 -4 -3 -9 5 -5 8 -9 22 -9 30 0 16 17 -16 18 -35z m-3269 3 c-24
-21 -24 -21 -2 -15 12 3 22 2 22 -3 0 -4 12 -8 28 -9 15 0 88 -5 162 -9 l135
-8 -122 -2 c-67 -1 -134 3 -149 8 -15 6 -29 8 -32 5 -3 -2 6 -9 19 -14 22 -9
22 -10 4 -10 -12 -1 -25 2 -30 7 -6 4 -44 4 -85 1 -41 -3 -66 -6 -56 -7 27 -3
14 -12 -23 -17 -30 -4 -30 -3 -16 19 14 21 21 23 93 20 42 -2 68 -1 57 2 -34
10 -40 23 -19 39 30 23 42 17 14 -7z m3060 0 c0 -19 -2 -20 -10 -8 -13 19 -13
30 0 30 6 0 10 -10 10 -22z m-5366 -7 c4 -5 -3 -7 -14 -4 -23 6 -26 13 -6 13
8 0 17 -4 20 -9z m5536 -43 c0 -35 -3 -48 -9 -39 -8 12 -10 12 -14 0 -2 -8 -2
-5 0 6 3 11 7 35 10 53 8 48 13 39 13 -20z m30 -54 c6 -6 5 -17 -3 -28 -10
-14 -12 -3 -13 61 -1 45 1 57 3 28 2 -27 8 -54 13 -61z m-2669 76 c6 0 8 4 5
9 -3 5 8 6 27 2 17 -4 47 -6 66 -5 27 1 31 0 17 -8 -9 -5 -24 -7 -32 -4 -8 3
-14 2 -14 -2 0 -4 -53 -7 -118 -8 -108 -1 -111 0 -37 6 l80 6 -90 4 -90 4 85
5 c47 3 87 3 88 -1 2 -5 8 -8 13 -8z m-1506 0 c-16 -4 -48 -9 -70 -10 l-40 -3
45 -7 45 -7 -40 -2 c-22 -1 -59 -6 -82 -10 -24 -5 -43 -4 -43 0 0 5 15 9 34 9
20 0 36 6 39 14 5 14 46 21 117 23 22 1 21 0 -5 -7z m1282 4 c-3 -3 -12 -4
-19 -1 -8 3 -5 6 6 6 11 1 17 -2 13 -5z m-1417 -14 c-20 -13 -43 -13 -35 0 3
6 16 10 28 10 18 0 19 -2 7 -10z m1455 0 c3 -5 2 -10 -4 -10 -5 0 -13 5 -16
10 -3 6 -2 10 4 10 5 0 13 -4 16 -10z m-35 -4 c0 -3 -4 -8 -10 -11 -5 -3 -10
-1 -10 4 0 6 5 11 10 11 6 0 10 -2 10 -4z m250 -16 c0 -5 -2 -10 -4 -10 -3 0
-8 5 -11 10 -3 6 -1 10 4 10 6 0 11 -4 11 -10z m80 0 c0 -5 6 -10 14 -10 8 0
17 -4 20 -9 4 -5 -10 -4 -29 1 -19 6 -32 15 -29 20 7 11 24 10 24 -2z m37 4
c-3 -3 -12 -4 -19 -1 -8 3 -5 6 6 6 11 1 17 -2 13 -5z m-3117 -34 c0 -5 -5
-10 -11 -10 -5 0 -7 5 -4 10 3 6 8 10 11 10 2 0 4 -4 4 -10z m863 -17 c-13 -2
-33 -2 -45 0 -13 2 -3 4 22 4 25 0 35 -2 23 -4z m2322 -3 c3 -5 1 -10 -4 -10
-6 0 -11 5 -11 10 0 6 2 10 4 10 3 0 8 -4 11 -10z m105 -20 c11 0 20 -5 20
-11 0 -6 -6 -9 -14 -6 -8 3 -32 11 -55 18 -23 7 -41 16 -41 20 0 4 16 1 35 -7
19 -7 44 -14 55 -14z m7 14 c-3 -3 -12 -4 -19 -1 -8 3 -5 6 6 6 11 1 17 -2 13
-5z m43 -19 c0 -14 5 -25 10 -25 6 0 5 -6 -2 -14 -7 -8 -15 -13 -16 -11 -9 8
-10 75 -1 75 5 0 9 -11 9 -25z m-3340 -6 c0 -5 -4 -9 -10 -9 -5 0 -10 7 -10
16 0 8 5 12 10 9 6 -3 10 -10 10 -16z m137 15 c-3 -3 -12 -4 -19 -1 -8 3 -5 6
6 6 11 1 17 -2 13 -5z m-42 -14 c3 -5 1 -10 -4 -10 -6 0 -11 5 -11 10 0 6 2
10 4 10 3 0 8 -4 11 -10z m2908 -10 c-12 -10 -24 -28 -28 -39 -3 -10 -12 -22
-20 -25 -8 -3 -15 -13 -15 -22 0 -24 -81 -123 -107 -130 -13 -3 -23 -10 -23
-15 0 -5 -12 -9 -27 -9 -16 0 -40 -7 -55 -14 -16 -8 -28 -13 -28 -10 0 7 83
108 93 112 15 7 6 41 -13 47 -20 6 -31 -4 -106 -95 -16 -19 -32 -36 -36 -38
-5 -2 -8 -10 -8 -17 0 -7 -15 -23 -34 -34 -28 -18 -49 -21 -140 -21 l-108 0
29 29 c16 15 40 32 53 36 13 4 35 18 49 31 14 13 31 24 38 24 7 0 13 5 13 10
0 6 8 13 18 17 9 3 34 20 55 36 29 23 37 35 35 55 -4 38 -22 37 -65 -2 -43
-39 -140 -106 -154 -106 -4 0 -12 -6 -16 -13 -10 -17 -76 -57 -94 -57 -8 0
-20 -9 -27 -20 -17 -27 -30 -25 -38 5 -3 14 -10 25 -15 25 -5 0 -9 4 -9 8 0
11 81 94 94 96 6 1 22 9 36 18 14 9 55 31 93 49 37 17 67 37 67 44 0 16 63 23
285 34 88 4 175 8 194 9 l35 2 -21 -20z m2604 -12 c-3 -8 -6 -5 -6 6 -1 11 2
17 5 13 3 -3 4 -12 1 -19z m-2411 -9 c19 -11 34 -25 34 -30 0 -5 9 -9 21 -9
11 0 41 -16 66 -35 25 -19 54 -35 65 -35 10 0 26 -9 36 -21 9 -11 29 -27 44
-35 36 -19 27 -49 -36 -114 -58 -59 -78 -66 -153 -51 -107 21 -348 9 -377 -20
-6 -5 -21 -9 -34 -9 -26 0 -117 -45 -142 -70 -29 -28 -60 -87 -60 -112 0 -35
33 -73 80 -92 22 -9 40 -20 40 -24 0 -5 -28 -21 -62 -35 -53 -22 -85 -28 -195
-33 l-132 -7 -71 76 c-39 42 -80 79 -91 82 -10 4 -19 12 -19 19 0 15 -94 106
-109 106 -6 0 -11 4 -11 10 0 11 -86 126 -98 132 -15 7 -132 146 -132 158 0
14 -25 40 -39 40 -6 0 -11 9 -11 21 0 19 5 20 78 19 42 0 122 6 177 15 206 33
275 41 275 33 0 -5 -13 -11 -30 -14 -16 -4 -30 -10 -30 -15 0 -5 -6 -9 -13 -9
-7 0 -24 -11 -39 -25 -88 -82 -101 -141 -44 -207 55 -64 69 -68 247 -68 145 0
163 2 212 24 29 13 74 26 100 30 27 4 76 22 110 39 62 32 74 40 92 68 6 9 33
49 60 89 28 40 55 80 60 89 6 9 14 22 18 29 13 19 76 14 113 -9z m2440 -51
c-17 -10 -22 -38 -7 -38 5 0 12 -6 14 -12 2 -7 3 0 1 15 -2 17 0 26 6 22 14
-9 12 -32 -5 -85 -15 -45 -15 -45 -11 -7 3 20 1 37 -5 37 -5 0 -9 -17 -9 -37
0 -32 -2 -35 -14 -23 -18 19 -25 79 -9 88 6 4 13 18 15 32 2 14 9 24 16 23 7
-2 13 10 14 30 l1 32 4 -34 c3 -24 0 -37 -11 -43z m-9 40 c-3 -8 -6 -5 -6 6
-1 11 2 17 5 13 3 -3 4 -12 1 -19z m-2215 -22 c-2 -10 3 -16 10 -15 39 5 58
-2 58 -21 0 -11 7 -20 15 -20 8 0 15 6 15 13 0 7 3 8 8 2 12 -18 63 -47 70
-40 4 3 0 11 -8 16 -13 9 -13 10 0 6 8 -2 15 -10 15 -18 0 -23 -35 -22 -61 2
-13 12 -24 17 -24 11 0 -6 9 -16 19 -22 11 -5 27 -17 36 -27 13 -13 18 -14 25
-3 5 9 8 5 7 -12 -2 -25 -3 -24 -52 18 -27 24 -54 44 -58 44 -5 0 -18 12 -29
26 -12 14 -24 21 -27 16 -3 -6 -17 0 -33 13 -18 15 -23 25 -15 28 20 8 32 1
29 -17z m66 17 c-10 -2 -26 -2 -35 0 -10 3 -2 5 17 5 19 0 27 -2 18 -5z m2112
-30 c0 -7 -4 -13 -10 -13 -5 0 -7 7 -4 15 4 8 1 15 -6 15 -6 0 -8 5 -4 11 7
12 24 -7 24 -28z m-2073 -5 c-3 -8 -6 -5 -6 6 -1 11 2 17 5 13 3 -3 4 -12 1
-19z m-1887 -23 c0 -8 9 -15 20 -15 11 0 20 -4 20 -10 0 -5 7 -7 15 -4 8 3 24
-1 35 -9 30 -21 126 -139 134 -165 4 -12 11 -22 17 -22 14 0 99 -91 99 -106 0
-8 6 -14 13 -14 6 0 19 -15 28 -33 8 -17 25 -36 37 -42 12 -5 22 -14 22 -20 0
-6 12 -19 27 -30 29 -22 32 -26 64 -67 11 -16 27 -28 35 -28 8 0 14 -4 14 -9
0 -5 23 -32 50 -60 59 -61 63 -79 18 -72 -5 0 -8 -6 -8 -14 0 -8 -7 -15 -15
-15 -9 0 -15 -9 -15 -25 0 -18 -5 -25 -20 -25 -17 0 -26 -11 -17 -24 1 -2 -6
-13 -17 -25 -10 -11 -21 -41 -23 -65 -3 -25 -11 -50 -18 -56 -9 -7 -9 -26 -3
-72 11 -77 5 -134 -17 -158 -13 -14 -19 -50 -25 -147 -6 -86 -16 -146 -30
-183 -22 -61 -22 -59 -24 -221 -1 -71 4 -125 11 -140 6 -13 16 -39 22 -58 11
-34 11 -35 -56 -97 -38 -35 -73 -63 -79 -64 -6 0 -18 -8 -28 -18 -9 -11 -34
-25 -56 -32 -22 -7 -54 -26 -72 -42 -17 -15 -38 -28 -45 -28 -7 0 -13 -4 -13
-10 0 -5 -7 -10 -15 -10 -8 0 -15 -4 -15 -10 0 -10 -43 -31 -105 -51 -22 -7
-49 -21 -61 -31 -11 -10 -26 -18 -32 -18 -7 0 -30 -12 -52 -26 -42 -28 -125
-47 -252 -59 -53 -5 -78 -4 -78 3 0 6 5 14 10 17 6 4 10 53 10 115 l0 108 38
15 c21 9 52 27 69 41 17 14 36 26 42 26 7 0 21 8 32 19 11 10 43 30 73 44 29
14 59 33 66 42 8 9 27 23 44 32 17 9 36 24 43 33 7 10 26 20 43 24 28 5 31 9
28 38 -3 30 -6 33 -41 36 -26 2 -39 -1 -43 -12 -3 -9 -12 -16 -19 -16 -6 0
-20 -9 -30 -20 -10 -11 -24 -20 -32 -20 -7 0 -16 -7 -19 -15 -3 -8 -27 -24
-52 -36 -26 -12 -59 -33 -74 -45 -15 -12 -41 -25 -58 -29 -16 -4 -38 -17 -48
-29 -10 -13 -28 -26 -40 -30 -22 -7 -22 -7 -22 113 0 69 4 122 10 126 6 3 10
16 10 28 0 32 35 84 72 107 18 11 29 20 25 20 -13 0 24 34 39 36 8 1 26 12 41
24 79 61 123 90 137 90 8 0 22 7 30 16 9 8 16 12 16 9 0 -4 15 4 34 18 18 14
46 29 62 33 16 4 31 10 34 13 3 3 22 15 44 26 43 22 51 34 42 69 -5 19 -11 22
-33 18 -16 -2 -35 -11 -44 -19 -9 -8 -41 -23 -70 -34 -30 -12 -68 -32 -86 -45
-17 -13 -39 -24 -49 -24 -20 0 -84 -38 -84 -51 0 -5 -12 -12 -27 -15 -16 -4
-37 -16 -48 -28 -27 -28 -115 -88 -115 -77 0 4 3 11 8 15 4 4 8 20 9 34 3 42
32 154 47 182 7 14 12 30 9 36 -2 6 3 17 12 24 8 7 15 17 15 22 0 6 14 27 30
48 17 21 30 43 30 49 0 6 16 26 37 44 32 30 37 41 41 91 4 52 3 58 -17 63 -11
3 -21 10 -21 17 0 10 -37 40 -51 41 -9 0 -79 94 -79 106 0 5 -10 20 -23 32
-36 35 -76 100 -83 135 -4 17 -10 32 -14 32 -8 0 -40 84 -40 105 0 8 17 7 63
-3 34 -9 64 -19 67 -23 3 -3 34 -15 70 -24 36 -10 77 -27 92 -37 14 -10 31
-18 36 -18 6 0 12 -3 14 -7 7 -16 96 -56 112 -50 9 4 16 18 16 34 0 27 -7 34
-84 81 -36 21 -134 62 -150 62 -8 0 -17 4 -21 9 -3 6 -26 13 -50 17 -25 3 -48
10 -51 15 -3 5 -10 7 -15 3 -6 -3 -18 1 -27 9 -9 9 -30 19 -45 22 -37 10 -47
38 -47 129 0 43 -5 77 -12 84 -9 9 -9 15 0 24 7 7 12 25 12 40 0 15 4 28 9 28
15 0 124 -67 154 -94 15 -14 33 -26 38 -26 6 0 24 -13 39 -30 23 -25 36 -30
74 -30 44 0 46 1 46 29 0 21 -6 30 -22 35 -13 3 -58 35 -100 71 -42 36 -86 65
-97 65 -12 0 -21 4 -21 8 0 6 -44 29 -70 36 -30 9 -39 24 -33 59 l6 37 258 0
c166 0 259 4 259 10 0 6 5 10 10 10 6 0 10 -7 10 -15z m3227 -47 c-3 -7 -5 -2
-5 12 0 14 2 19 5 13 2 -7 2 -19 0 -25z m40 10 c-3 -8 -6 -5 -6 6 -1 11 2 17
5 13 3 -3 4 -12 1 -19z m-37 -40 c0 -4 -7 -8 -15 -8 -8 0 -15 4 -15 8 0 5 7 9
15 9 8 0 15 -4 15 -9z m-120 -22 c0 -3 -4 -8 -10 -11 -5 -3 -10 -1 -10 4 0 6
5 11 10 11 6 0 10 -2 10 -4z m75 -6 c-3 -5 -10 -10 -16 -10 -5 0 -9 5 -9 10 0
6 7 10 16 10 8 0 12 -4 9 -10z m807 -60 c-7 -19 -10 -21 -15 -7 -4 10 -2 17 3
17 6 0 10 8 11 18 0 9 3 12 5 6 3 -6 1 -21 -4 -34z m-2087 -137 c-3 -18 -17
-46 -30 -62 -14 -16 -25 -34 -25 -40 0 -6 -6 -11 -13 -11 -15 0 -39 -44 -30
-54 4 -3 21 -6 38 -6 26 0 40 9 69 44 20 25 40 55 45 68 9 22 10 21 10 -7 1
-17 -4 -36 -11 -43 -9 -9 -9 -12 3 -13 9 0 6 -4 -6 -9 -19 -8 -19 -9 -1 -9 20
-1 20 -1 0 -15 -10 -8 -15 -18 -11 -22 4 -5 12 -2 17 6 13 21 12 3 -1 -22 -8
-16 -8 -22 2 -29 7 -4 10 -11 6 -15 -10 -10 -39 17 -33 32 3 7 1 16 -4 19 -6
4 -10 -3 -10 -15 0 -12 -9 -24 -22 -29 -13 -5 -36 -27 -53 -49 -20 -27 -33
-36 -38 -29 -6 8 -7 7 -4 -3 5 -20 37 -26 37 -7 0 8 7 17 15 21 8 3 15 16 16
28 0 22 1 22 9 3 5 -13 3 -24 -6 -31 -16 -13 -19 -44 -5 -44 5 0 12 8 15 18 4
13 4 13 3 -3 -2 -16 -10 -20 -44 -20 -22 0 -39 3 -36 8 2 4 1 7 -3 7 -14 0
-64 -64 -64 -82 0 -10 -4 -18 -10 -18 -5 0 -8 6 -6 13 1 6 1 9 -1 5 -3 -5 -13
-8 -23 -8 -11 0 -24 -9 -30 -20 -6 -11 -18 -20 -26 -20 -9 0 -28 -9 -44 -20
-15 -11 -30 -17 -34 -13 -3 3 -6 2 -6 -4 0 -6 -12 -9 -26 -7 -17 1 -33 -6 -47
-22 -11 -13 -27 -24 -34 -24 -7 0 -13 -4 -13 -8 0 -4 -14 -12 -32 -17 -17 -6
-36 -19 -42 -30 -6 -11 -12 -22 -14 -24 -1 -3 -9 4 -17 15 -15 20 -19 16 -9
-10 9 -24 54 -21 54 4 0 11 6 20 13 20 7 0 13 -9 13 -20 0 -24 -45 -35 -112
-27 -25 2 -42 2 -39 -2 4 -3 -15 -11 -42 -16 -30 -7 -47 -16 -45 -24 2 -9 -4
-10 -20 -6 l-23 7 24 -21 c27 -24 15 -29 -15 -6 -25 19 -42 19 -60 0 -9 -8
-12 -15 -7 -15 5 0 14 5 21 12 9 9 12 9 12 0 0 -7 8 -12 17 -12 9 0 14 -2 11
-5 -8 -9 -108 -12 -113 -5 -3 4 -24 4 -47 0 -24 -5 -46 -6 -49 -4 -4 2 -9 -3
-12 -10 -4 -10 -22 -15 -57 -14 -28 0 -57 -6 -65 -12 -8 -7 -15 -9 -15 -5 0 4
-6 3 -12 -3 -7 -5 -43 -10 -80 -11 l-68 -1 0 45 c0 24 -4 46 -9 49 -20 13 -18
71 3 111 11 22 21 45 22 50 6 36 20 56 43 62 14 3 40 17 57 30 17 12 38 23 47
23 10 0 17 5 17 10 0 6 28 10 63 10 122 1 247 19 274 40 14 11 34 20 44 20 11
0 19 3 19 8 0 14 139 76 197 87 17 4 37 13 44 21 6 8 24 14 40 14 17 0 42 12
62 30 19 17 41 30 50 30 8 0 17 9 20 21 3 11 15 23 26 26 12 3 21 11 21 19 0
17 68 64 84 58 13 -5 165 137 168 157 1 8 3 -8 5 -36 3 -27 2 -64 -2 -82z
m1122 80 c-3 -10 -5 -4 -5 12 0 17 2 24 5 18 2 -7 2 -21 0 -30z m97 -17 c-6
-17 -34 -30 -34 -16 0 5 8 14 18 19 22 13 22 13 16 -3z m-61 -23 c-7 -2 -19
-2 -25 0 -7 3 -2 5 12 5 14 0 19 -2 13 -5z m-1463 -54 c12 -8 1 -22 -60 -79
-41 -39 -84 -70 -95 -70 -11 0 -38 -9 -60 -19 -22 -10 -46 -16 -53 -13 -7 2
-21 -3 -30 -11 -21 -18 -65 -29 -86 -21 -10 4 -16 18 -16 35 0 26 -4 29 -40
35 -53 9 -52 20 7 61 26 18 37 21 58 13 14 -5 25 -17 25 -25 0 -19 23 -45 39
-45 17 0 13 47 -4 54 -8 3 -15 16 -15 30 0 22 6 26 58 36 31 7 64 16 72 20 21
12 182 12 200 -1z m1275 -19 c-10 -11 -21 -18 -23 -15 -3 3 3 12 14 20 27 20
30 18 9 -5z m95 -4 c0 -3 -4 -8 -10 -11 -5 -3 -10 -1 -10 4 0 6 5 11 10 11 6
0 10 -2 10 -4z m-145 -106 c3 -5 1 -10 -4 -10 -6 0 -11 5 -11 10 0 6 2 10 4
10 3 0 8 -4 11 -10z m80 0 c-3 -5 -12 -7 -20 -3 -21 7 -19 13 6 13 11 0 18 -4
14 -10z m-1747 -42 c7 -7 12 -17 12 -22 0 -8 -3 -7 -8 0 -4 6 -16 16 -27 22
-15 8 -16 11 -4 12 8 0 20 -5 27 -12z m1617 -28 c-3 -5 -16 -10 -28 -9 -21 0
-21 1 -2 9 28 12 37 12 30 0z m-852 -47 c-7 -2 -19 -2 -25 0 -7 3 -2 5 12 5
14 0 19 -2 13 -5z m562 -23 c-3 -5 -11 -10 -16 -10 -6 0 -7 5 -4 10 3 6 11 10
16 10 6 0 7 -4 4 -10z m125 -4 c-6 -6 -18 -5 -32 2 -22 10 -21 10 9 9 19 -1
28 -6 23 -11z m-220 -70 c0 -3 -4 -8 -10 -11 -5 -3 -10 -1 -10 4 0 6 5 11 10
11 6 0 10 -2 10 -4z m23 -35 c-16 -16 -32 -26 -36 -24 -5 3 4 18 19 34 15 15
31 26 36 23 4 -3 -4 -18 -19 -33z m52 19 c3 -5 1 -10 -4 -10 -6 0 -11 5 -11
10 0 6 2 10 4 10 3 0 8 -4 11 -10z m-695 -36 c0 -14 -4 -23 -9 -20 -5 3 -7 15
-4 26 7 28 13 25 13 -6z m33 -4 c3 -11 1 -20 -4 -20 -5 0 -9 9 -9 20 0 11 2
20 4 20 2 0 6 -9 9 -20z m-84 -52 c0 -28 -2 -30 -9 -13 -12 28 -12 45 0 45 6
0 10 -15 9 -32z m435 24 c3 -5 -11 -14 -30 -21 -23 -8 -34 -19 -34 -32 0 -13
-7 -19 -22 -18 -16 1 -18 3 -6 6 9 2 19 15 22 29 4 15 14 24 26 24 11 0 20 5
20 10 0 12 17 13 24 2z m93 -19 c-7 -16 -12 -36 -10 -45 3 -10 1 -18 -4 -18
-8 0 -9 21 -5 73 1 9 9 17 17 17 14 0 14 -4 2 -27z m63 7 c0 -5 -4 -12 -10
-15 -5 -3 -10 -4 -10 -1 0 2 -3 12 -6 20 -5 12 -2 15 10 10 9 -3 16 -10 16
-14z m53 13 c-7 -2 -21 -2 -30 0 -10 3 -4 5 12 5 17 0 24 -2 18 -5z m-675 -38
c-2 -3 -13 -6 -24 -8 -10 -2 -30 -9 -42 -16 -13 -7 -26 -11 -28 -8 -7 7 46 38
55 33 5 -3 15 1 22 10 9 11 15 12 17 4 2 -6 2 -13 0 -15z m9 -31 c-3 -3 -12
-4 -19 -1 -8 3 -5 6 6 6 11 1 17 -2 13 -5z m-214 -61 c-7 -2 -19 -2 -25 0 -7
3 -2 5 12 5 14 0 19 -2 13 -5z m-56 -19 c-3 -3 -12 -4 -19 -1 -8 3 -5 6 6 6
11 1 17 -2 13 -5z m638 -34 c3 -5 1 -10 -4 -10 -6 0 -11 5 -11 10 0 6 2 10 4
10 3 0 8 -4 11 -10z m-150 -20 c3 -6 -1 -7 -9 -4 -18 7 -21 14 -7 14 6 0 13
-4 16 -10z m-572 -27 c-7 -2 -19 -2 -25 0 -7 3 -2 5 12 5 14 0 19 -2 13 -5z
m563 -23 c0 -20 -40 -40 -53 -26 -4 3 3 6 15 6 15 0 22 6 22 20 0 11 4 20 8
20 4 0 8 -9 8 -20z m-46 6 c0 -2 -11 -6 -25 -8 -14 -3 -25 -1 -25 3 0 5 11 9
25 9 14 0 25 -2 25 -4z m-265 -76 c3 -5 -1 -10 -9 -10 -9 0 -16 5 -16 10 0 6
4 10 9 10 6 0 13 -4 16 -10z m135 0 c0 -5 -5 -10 -11 -10 -5 0 -7 5 -4 10 3 6
8 10 11 10 2 0 4 -4 4 -10z m-280 -36 c0 -9 5 -12 13 -8 6 4 8 3 4 -1 -12 -14
-57 -17 -57 -5 0 6 6 8 13 4 8 -5 8 -2 -2 9 -12 15 -11 17 8 17 12 0 21 -6 21
-16z m-641 -11 c-6 -11 -24 -19 -42 -19 -18 -1 -24 1 -14 3 9 2 17 8 17 13 0
7 17 15 43 19 4 0 2 -7 -4 -16z m-111 -10 c-15 -2 -42 -2 -60 0 -18 2 -6 4 27
4 33 0 48 -2 33 -4z m225 -10 c-7 -2 -19 -2 -25 0 -7 3 -2 5 12 5 14 0 19 -2
13 -5z m532 -3 c3 -5 -1 -10 -10 -10 -9 0 -13 5 -10 10 3 6 8 10 10 10 2 0 7
-4 10 -10z m55 -14 c0 -3 -4 -8 -10 -11 -5 -3 -10 -1 -10 4 0 6 5 11 10 11 6
0 10 -2 10 -4z m-480 -76 c0 -5 -2 -10 -4 -10 -3 0 -8 5 -11 10 -3 6 -1 10 4
10 6 0 11 -4 11 -10z m80 6 c0 -3 -4 -8 -10 -11 -5 -3 -10 -1 -10 4 0 6 5 11
10 11 6 0 10 -2 10 -4z m110 0 c0 -3 -4 -8 -10 -11 -5 -3 -10 -1 -10 4 0 6 5
11 10 11 6 0 10 -2 10 -4z m-153 -12 c-3 -3 -12 -4 -19 -1 -8 3 -5 6 6 6 11 1
17 -2 13 -5z m1043 -63 c0 -5 -7 -16 -15 -25 -8 -8 -15 -17 -15 -21 0 -34 -97
-173 -139 -199 -8 -5 -25 -20 -37 -33 -12 -12 -28 -23 -37 -23 -9 0 -19 -9
-22 -20 -3 -11 -16 -25 -28 -31 -21 -12 -21 -11 -4 8 9 11 17 32 17 46 0 23
-4 27 -28 27 -27 0 -72 -31 -72 -50 0 -5 -16 -25 -35 -46 -19 -20 -35 -43 -35
-50 0 -8 -5 -14 -10 -14 -6 0 -23 -14 -38 -31 -27 -31 -28 -31 -51 -12 -20 17
-23 24 -16 61 5 34 11 42 28 42 12 0 34 11 49 25 15 14 39 30 53 35 20 8 25
16 25 46 0 36 0 37 -36 31 -32 -5 -35 -4 -29 16 6 20 16 30 65 70 8 7 38 21
65 31 28 11 52 22 55 25 10 12 50 31 65 31 8 0 23 4 33 9 88 47 192 75 192 52z"/>
<path d="M2631 5033 c-1 -14 5 -23 14 -23 8 0 15 5 15 10 0 16 27 12 34 -5 8
-21 23 -19 29 4 7 27 2 29 -43 21 -26 -5 -41 -3 -44 4 -2 6 -5 1 -5 -11z"/>
<path d="M2600 5019 c0 -11 5 -17 10 -14 6 3 10 13 10 21 0 8 -4 14 -10 14 -5
0 -10 -9 -10 -21z"/>
<path d="M3390 5027 c0 -26 19 -59 31 -52 5 4 6 11 3 17 -4 6 -2 8 3 5 6 -4
13 2 16 13 3 11 1 23 -4 26 -5 3 -9 -2 -9 -10 0 -21 -10 -20 -26 2 -13 16 -13
16 -14 -1z"/>
<path d="M3495 5024 c11 -8 25 -18 31 -22 6 -4 14 -17 18 -28 6 -20 3 -22 -31
-20 -21 1 -48 8 -60 14 -14 8 -24 9 -28 2 -8 -13 15 -37 41 -42 10 -2 19 -11
18 -19 -2 -20 0 -20 128 -23 117 -3 142 -12 132 -52 -4 -14 1 -32 11 -46 15
-20 16 -21 11 -3 -3 11 -6 37 -8 58 -2 33 -7 40 -33 51 -17 8 -71 16 -121 19
-79 5 -87 4 -70 -9 11 -8 15 -14 9 -14 -18 0 -46 37 -33 45 6 4 14 4 17 1 10
-9 43 14 43 30 0 21 -57 74 -79 74 -13 -1 -13 -3 4 -16z"/>
<path d="M3910 5027 c0 -7 7 -22 15 -33 8 -10 15 -28 15 -39 0 -22 55 -45 107
-45 16 0 40 -6 55 -14 17 -9 30 -10 36 -4 6 6 12 6 16 -1 9 -14 67 -14 103 0
15 6 80 12 143 14 149 3 150 4 150 13 0 5 -15 7 -32 5 -18 -2 -139 -4 -268 -6
-215 -2 -237 0 -262 17 -16 10 -28 24 -28 31 0 7 -7 18 -15 25 -8 7 -15 21
-15 31 0 11 -4 19 -10 19 -5 0 -10 -6 -10 -13z m277 -133 c-3 -3 -12 -4 -19
-1 -8 3 -5 6 6 6 11 1 17 -2 13 -5z m40 0 c-3 -3 -12 -4 -19 -1 -8 3 -5 6 6 6
11 1 17 -2 13 -5z"/>
<path d="M2580 4975 c0 -8 9 -19 20 -25 37 -20 13 -40 -50 -40 -64 0 -93 -7
-84 -21 3 -5 -2 -6 -11 -3 -18 7 -65 -3 -65 -14 0 -4 21 -5 48 -2 29 3 46 10
45 18 -2 7 8 12 22 12 14 0 25 -4 25 -10 0 -5 7 -10 15 -10 8 0 15 4 15 8 0 4
12 9 26 10 15 1 34 8 42 14 15 13 18 14 63 16 15 1 30 9 33 18 3 8 2 12 -4 9
-6 -3 -10 1 -10 11 0 13 -3 14 -15 4 -8 -7 -12 -16 -9 -21 3 -5 -4 -9 -16 -9
-12 0 -18 5 -15 10 3 6 -5 10 -18 10 -14 0 -27 7 -31 15 -7 19 -26 20 -26 0z"/>
<path d="M4552 4967 c-9 -11 -10 -17 -2 -22 15 -9 23 -1 18 21 -3 15 -4 16
-16 1z"/>
<path d="M3051 4945 c-19 -13 -47 -27 -63 -30 -39 -9 -66 -69 -43 -95 8 -9 13
-19 10 -21 -2 -3 8 -5 23 -6 20 -1 23 0 9 6 -10 4 -19 11 -20 16 -1 6 -5 9 -9
8 -5 -2 -8 6 -8 18 0 13 4 18 12 13 8 -5 9 -2 5 10 -5 13 -2 17 11 14 9 -2 24
4 32 14 25 29 81 46 118 36 18 -5 35 -15 38 -22 7 -19 -26 -60 -81 -100 -16
-12 -17 -15 -4 -16 19 0 79 49 79 65 0 7 6 15 14 18 14 6 17 49 3 45 -5 -2
-13 5 -18 15 -6 9 -14 15 -19 12 -4 -3 -10 2 -14 10 -8 21 -36 18 -75 -10z"/>
<path d="M2636 4903 c-12 -12 -6 -25 9 -19 18 6 55 -27 55 -49 0 -18 16 -20
26 -3 4 6 2 14 -4 16 -7 2 -12 9 -12 16 0 10 -21 25 -61 43 -3 1 -9 0 -13 -4z"/>
<path d="M3424 4889 c-3 -5 -10 -6 -16 -3 -7 4 -8 2 -4 -4 8 -14 66 -16 66 -3
0 12 -39 21 -46 10z"/>
<path d="M2353 4856 c-23 -11 -33 -56 -13 -56 6 0 10 7 10 16 0 9 8 23 17 30
24 16 14 23 -14 10z"/>
<path d="M3367 4853 c-12 -11 -8 -73 4 -73 7 0 9 10 7 25 -3 14 -1 28 3 31 5
3 9 9 9 15 0 10 -14 12 -23 2z"/>
<path d="M4323 4853 c-33 -4 -90 -49 -78 -61 3 -4 11 1 16 11 6 9 18 17 27 17
10 0 22 4 28 9 5 5 35 11 67 15 44 4 69 1 107 -14 49 -19 65 -15 34 10 -15 14
-142 22 -201 13z"/>
<path d="M4717 4827 c-21 -13 -35 -26 -31 -30 11 -11 24 -8 24 6 0 7 24 18 54
25 46 11 60 10 90 -2 20 -8 36 -20 36 -26 0 -6 5 -8 11 -5 7 5 2 16 -12 31
-31 33 -118 34 -172 1z"/>
<path d="M2659 4828 c-6 -25 -6 -38 1 -38 12 0 20 29 10 35 -6 4 -10 5 -11 3z"/>
<path d="M2360 4798 c0 -4 6 -8 14 -8 8 0 17 4 20 8 2 4 -4 8 -15 8 -10 0 -19
-4 -19 -8z"/>
<path d="M3010 4785 c0 -9 9 -15 25 -15 18 0 23 4 19 15 -4 8 -15 15 -25 15
-10 0 -19 -7 -19 -15z"/>
<path d="M4660 4786 c0 -27 22 -65 42 -71 10 -4 18 -11 18 -16 0 -11 54 -7 83
5 27 13 20 23 -17 22 -19 -1 -32 -4 -29 -8 2 -5 -2 -8 -11 -8 -25 0 -46 12
-46 26 0 8 -4 14 -10 14 -5 0 -10 9 -10 19 0 11 -4 23 -10 26 -5 3 -10 -1 -10
-9z"/>
<path d="M4543 4776 c3 -7 0 -19 -6 -25 -6 -6 -12 -18 -13 -27 -2 -15 -1 -15
11 -3 20 20 30 69 15 69 -7 0 -10 -6 -7 -14z"/>
<path d="M4900 4780 c-8 -5 -11 -12 -7 -16 4 -4 13 -2 19 4 15 15 7 24 -12 12z"/>
<path d="M4235 4770 c-3 -6 1 -7 9 -4 18 7 21 14 7 14 -6 0 -13 -4 -16 -10z"/>
<path d="M4858 4732 c-16 -10 -28 -24 -28 -32 1 -13 2 -13 13 1 12 16 18 19
35 19 5 0 9 7 9 15 0 8 -1 15 -1 14 -1 0 -13 -8 -28 -17z"/>
<path d="M4900 4739 c0 -5 5 -7 10 -4 6 3 10 8 10 11 0 2 -4 4 -10 4 -5 0 -10
-5 -10 -11z"/>
<path d="M1554 4659 c-3 -6 -15 -9 -25 -6 -11 3 -19 1 -19 -4 0 -5 -8 -9 -18
-9 -10 0 -22 -4 -27 -9 -6 -4 -32 -17 -60 -27 -82 -30 -112 -55 -145 -117 -25
-48 -30 -71 -30 -126 0 -69 16 -121 37 -121 7 0 18 -12 25 -27 7 -16 23 -29
36 -31 12 -2 22 -7 22 -12 0 -23 69 -43 165 -47 88 -4 109 -2 175 20 81 28
156 90 144 121 -4 10 0 18 10 22 12 5 16 20 16 63 0 31 -4 61 -8 67 -5 5 -14
35 -21 66 -7 31 -15 58 -19 60 -4 2 -18 18 -31 36 -12 18 -42 41 -66 52 -24
11 -47 24 -50 30 -8 14 -102 13 -111 -1z m103 -79 c48 -25 113 -96 113 -123 1
-12 7 -35 14 -52 8 -18 10 -40 5 -55 -16 -56 -41 -101 -57 -107 -9 -3 -45 -18
-79 -34 -72 -34 -163 -40 -201 -13 -12 8 -22 12 -22 7 0 -4 -6 -1 -13 8 -7 9
-22 19 -35 23 -13 4 -39 24 -57 44 -42 45 -45 85 -11 157 26 57 34 64 96 89
25 10 52 22 60 27 38 23 88 40 143 48 4 0 23 -8 44 -19z"/>
<path d="M1453 4509 c-24 -12 -43 -27 -43 -35 0 -8 -9 -23 -20 -34 -24 -24
-26 -63 -4 -81 9 -7 20 -23 24 -35 11 -29 104 -74 153 -74 42 0 70 12 104 44
18 17 23 32 22 71 0 28 -3 44 -6 38 -7 -19 -117 -17 -133 1 -6 9 -10 37 -9 68
3 50 2 53 -21 56 -14 1 -44 -7 -67 -19z"/>
<path d="M2241 4349 c-18 -6 -40 -17 -48 -25 -8 -8 -18 -14 -23 -14 -14 0 -50
-42 -50 -57 0 -20 13 -16 66 20 49 33 98 45 109 27 3 -6 17 -10 30 -10 13 0
27 -5 30 -10 18 -29 115 -74 115 -54 0 16 -43 74 -55 74 -7 0 -22 12 -32 26
-22 30 -85 40 -142 23z"/>
<path d="M3826 3882 c-3 -5 18 -7 47 -5 75 6 81 11 15 12 -31 1 -59 -3 -62 -7z"/>
<path d="M3714 3868 c-5 -8 5 -9 39 -5 29 4 47 3 47 -3 0 -6 10 -10 23 -10 22
1 22 1 -3 15 -30 17 -96 19 -106 3z"/>
<path d="M1555 3500 c-3 -5 1 -10 9 -10 9 0 16 5 16 10 0 6 -4 10 -9 10 -6 0
-13 -4 -16 -10z"/>
<path d="M850 3461 c0 -4 11 -6 25 -3 14 2 25 6 25 8 0 2 -11 4 -25 4 -14 0
-25 -4 -25 -9z"/>
<path d="M591 3354 c-1 -6 -13 -16 -27 -22 -15 -8 -22 -17 -18 -24 6 -9 9 -9
11 -1 3 7 11 9 19 6 15 -6 29 19 21 39 -3 7 -6 8 -6 2z"/>
<path d="M1023 3263 c37 -2 96 -2 130 0 34 2 4 3 -68 3 -71 0 -99 -1 -62 -3z"/>
<path d="M5318 4343 c7 -3 16 -2 19 1 4 3 -2 6 -13 5 -11 0 -14 -3 -6 -6z"/>
<path d="M6247 3113 c-4 -3 -6 -22 -6 -42 l1 -36 8 40 c8 42 8 49 -3 38z"/>
<path d="M3295 2100 c-3 -5 -1 -10 4 -10 6 0 11 5 11 10 0 6 -2 10 -4 10 -3 0
-8 -4 -11 -10z"/>
</g>
</svg>
